<svg width="39" height="22" viewBox="0 0 39 22" fill="none" xmlns="http://www.w3.org/2000/svg">
<g clip-path="url(#clip0_211_2053)">
<path d="M38.5803 7.9505C38.5843 7.92147 38.5843 7.89213 38.5803 7.86311C38.5841 7.83946 38.5841 7.81534 38.5803 7.79164L38.2967 5.75031C38.2558 5.50609 38.1463 5.27783 37.9807 5.09105L37.9321 5.03545L37.843 4.94807L32.9332 0.801883L33.0709 0.936923C32.9582 0.804751 32.8168 0.699031 32.657 0.627551C32.4971 0.55607 32.323 0.520645 32.1473 0.523889H30.6565C30.4141 0.51918 30.1772 0.59474 29.9841 0.738351C29.7812 0.595605 29.537 0.520432 29.2873 0.523889H27.7965C27.601 0.520779 27.4082 0.568351 27.2374 0.661802C27.0667 0.755252 26.9242 0.891263 26.8243 1.05606C26.6703 1.29144 26.6125 1.57503 26.6623 1.85035L26.8486 3.1371C26.7252 3.06849 26.5854 3.03289 26.4435 3.03385H19.2247C18.9657 3.03544 18.7126 3.10987 18.4955 3.2483C18.2855 3.37715 18.1169 3.56165 18.0094 3.78047L17.4503 3.31184C17.2303 3.11226 16.9399 3.00408 16.6401 3.01002H5.3136C5.05368 3.01466 4.79953 3.08585 4.57634 3.21653C4.271 3.39174 4.04722 3.67663 3.95248 4.01082L0.355205 15.806C0.287991 16.0004 0.28138 16.21 0.336216 16.4081C0.391053 16.6061 0.504855 16.7837 0.663083 16.918C0.704313 16.9523 0.747604 16.9841 0.792718 17.0133C0.792718 17.0133 0.719788 16.9657 0.679278 16.926L5.58909 21.0801C5.79678 21.2676 6.06833 21.3724 6.35062 21.374H17.7663C18.027 21.3673 18.2813 21.2934 18.5036 21.1595C18.6293 21.0922 18.7418 21.0034 18.8358 20.8974L18.8763 20.8418L18.9411 20.7624L18.9897 20.675L19.5245 21.1278C19.7292 21.3078 19.9948 21.4068 20.2698 21.4058H31.7098C31.9702 21.3973 32.2241 21.3234 32.4471 21.1913C32.5699 21.1198 32.6818 21.0316 32.7793 20.9292L32.8197 20.8736L32.8846 20.7942C32.919 20.7439 32.9489 20.6908 32.9737 20.6353C33.0001 20.5871 33.0218 20.5366 33.0385 20.4844L36.3198 9.71384V9.61851C36.3238 9.58155 36.3238 9.54427 36.3198 9.50731V9.43584C36.3237 9.41214 36.3237 9.38802 36.3198 9.36432C36.3235 9.3141 36.3235 9.26367 36.3198 9.2134H37.3731C37.4647 9.22164 37.5569 9.22164 37.6485 9.2134H37.7215C37.7807 9.19606 37.8378 9.17205 37.8916 9.14193H37.9726L38.1184 9.03073L38.1833 8.98307L38.2967 8.84008V8.79247L38.3777 8.65741C38.3732 8.63115 38.3732 8.60427 38.3777 8.57801C38.3734 8.56511 38.3734 8.55117 38.3777 8.53828C38.3949 8.49171 38.4085 8.44389 38.4182 8.39529C38.4144 8.37963 38.4144 8.36329 38.4182 8.34762C38.4143 8.32398 38.4143 8.2998 38.4182 8.27616C38.4182 8.27616 38.5803 7.96637 38.5803 7.9505Z" fill="black"/>
<path d="M16.9723 3.91554C17.0154 3.95367 17.0454 4.00381 17.0584 4.0592C17.0715 4.11459 17.0669 4.17256 17.0453 4.22531L13.4561 16.0126C13.4109 16.1413 13.3185 16.2488 13.1969 16.3144C13.0979 16.3793 12.9834 16.4176 12.8646 16.4256H1.45711C1.35969 16.421 1.26739 16.3814 1.19784 16.3144C1.15647 16.2769 1.12743 16.2281 1.11444 16.1744C1.10145 16.1206 1.10511 16.0643 1.12493 16.0126L4.7222 4.22531C4.76365 4.095 4.8532 3.98453 4.97336 3.91554C5.07394 3.85531 5.18793 3.81987 5.30554 3.81228H16.7131C16.8097 3.81319 16.9024 3.85011 16.9723 3.91554ZM11.0174 13.6376L13.1644 6.60023H7.1528L5.01386 13.6376H11.0174ZM27.8614 4.03468C27.9003 4.07902 27.9489 4.11419 28.0037 4.13756C28.0584 4.16094 28.1177 4.17193 28.1774 4.16971H29.66C29.7165 4.17025 29.7721 4.15668 29.8218 4.13027C29.8714 4.10386 29.9133 4.06549 29.9436 4.01879C29.9699 3.98231 29.9885 3.94101 29.9982 3.89735C30.008 3.85369 30.0087 3.80856 30.0003 3.76462L29.7086 1.6677C29.6809 1.57065 29.631 1.48103 29.5628 1.40558C29.5238 1.36124 29.4752 1.32607 29.4205 1.30269C29.3658 1.27932 29.3064 1.26833 29.2468 1.27055H27.7642C27.7077 1.27001 27.652 1.28359 27.6024 1.30999C27.5528 1.3364 27.5109 1.37476 27.4806 1.42147C27.4239 1.53267 27.3996 1.60415 27.4239 1.6677L27.7237 3.76462C27.739 3.86673 27.7873 3.96134 27.8614 4.03468ZM32.5686 1.65181C32.5408 1.55476 32.4909 1.46514 32.4228 1.38969C32.3855 1.34551 32.3383 1.31036 32.2849 1.28694C32.2315 1.26353 32.1734 1.25248 32.1149 1.25467H30.6241C30.5686 1.25312 30.5137 1.26632 30.4652 1.29289C30.4167 1.31946 30.3765 1.3584 30.3487 1.40558C30.2948 1.47605 30.2714 1.56456 30.2839 1.65181L30.5836 3.74873C30.6024 3.84976 30.6502 3.94344 30.7214 4.01879C30.761 4.06227 30.8098 4.09684 30.8643 4.12015C30.9189 4.14345 30.9778 4.15494 31.0373 4.15381H32.5281C32.5835 4.15454 32.6381 4.14098 32.6864 4.11449C32.7348 4.088 32.7752 4.04953 32.8036 4.00291C32.8318 3.96737 32.8515 3.92609 32.8613 3.88211C32.8711 3.83814 32.8708 3.79257 32.8603 3.74873L32.5686 1.65181ZM26.557 4.82897L26.4111 3.79639H19.2247C19.1119 3.80249 19.0027 3.83815 18.9087 3.89965C18.849 3.93155 18.7971 3.97577 18.7565 4.02925C18.716 4.08273 18.6878 4.1442 18.6738 4.20942L18.0742 6.17925C18.0503 6.22848 18.0421 6.28371 18.0508 6.33758C18.0595 6.39146 18.0846 6.44147 18.1228 6.4811C18.1911 6.54406 18.2803 6.58076 18.374 6.58436H27.1079L24.9609 13.6218H16.2513C16.139 13.6243 16.0296 13.6573 15.9353 13.7171C15.8207 13.7884 15.737 13.8987 15.7004 14.0268L15.0927 15.9967C15.0729 16.0472 15.0677 16.1022 15.0777 16.1554C15.0877 16.2087 15.1125 16.2582 15.1494 16.2985C15.2156 16.3657 15.3054 16.4055 15.4006 16.4097H26.8405C26.9588 16.3997 27.0729 16.3616 27.1727 16.2985C27.2923 16.2326 27.3821 16.1248 27.4239 15.9967L30.7132 5.22611H27.0107C26.9519 5.22725 26.8936 5.21656 26.8392 5.1947C26.7849 5.17284 26.7357 5.14027 26.6947 5.09902C26.6277 5.02699 26.5804 4.93958 26.557 4.84486V4.82897Z" fill="white"/>
</g>
<defs>
<clipPath id="clip0_211_2053">
<rect width="38.2838" height="20.8821" fill="white" transform="translate(0.299438 0.523682)"/>
</clipPath>
</defs>
</svg>
