<svg width="64" height="11" viewBox="0 0 64 11" fill="none" xmlns="http://www.w3.org/2000/svg">
<path d="M7.84234 6.18822L5.61714 9.99925L3.39196 6.18822H7.84234ZM8.43846 5.8476H2.79343L5.61714 10.6733L8.43846 5.8476Z" fill="white"/>
<path d="M11.7111 1.44813L13.9363 5.25916H9.48592L11.7111 1.44813ZM11.7111 0.766907L8.88739 5.59263H14.5348L11.7111 0.766907Z" fill="white"/>
<path d="M0.0879822 0.766907L2.45557 5.03527L5.04277 0.874086L0.0879822 0.766907Z" fill="#4CAF4F"/>
<path d="M5.61722 1.14078L8.10066 5.38532H3.12897L5.61722 1.14078Z" fill="#4CAF4F"/>
<path d="M8.74018 6.31204L11.226 10.6733H6.13608L8.66294 6.31204H8.74018Z" fill="#4CAF4F"/>
<path d="M9.27838 6.04761L11.7111 10.3422L14.1777 6.04761H9.27838Z" fill="#4CAF4F"/>
<path d="M24.8675 1.45578V9.86121H23.3325L19.6756 4.57088H19.6141V9.86121H17.8369V1.45578H19.3965L23.0247 6.74201H23.0985V1.45578H24.8675Z" fill="white"/>
<path d="M29.1759 9.98434C28.5274 9.98434 27.9692 9.853 27.5013 9.59033C27.0362 9.32493 26.6778 8.95008 26.426 8.46578C26.1743 7.97875 26.0485 7.40279 26.0485 6.7379C26.0485 6.08944 26.1743 5.52032 26.426 5.03055C26.6778 4.54078 27.0321 4.15909 27.489 3.88547C27.9487 3.61186 28.4877 3.47505 29.1061 3.47505C29.522 3.47505 29.9092 3.54209 30.2676 3.67616C30.6288 3.8075 30.9434 4.00587 31.2116 4.27127C31.4824 4.53668 31.6931 4.87049 31.8436 5.2727C31.9941 5.67218 32.0693 6.14006 32.0693 6.67634V7.15653H26.7462V6.07302H30.4235C30.4235 5.8213 30.3688 5.5983 30.2594 5.40403C30.1499 5.20977 29.9981 5.05791 29.8038 4.94847C29.6123 4.83629 29.3893 4.78019 29.1348 4.78019C28.8694 4.78019 28.6341 4.84176 28.4289 4.96488C28.2264 5.08527 28.0677 5.24807 27.9528 5.45329C27.8379 5.65576 27.7791 5.88149 27.7763 6.13048V7.16064C27.7763 7.47256 27.8338 7.74207 27.9487 7.96917C28.0664 8.19627 28.2319 8.37138 28.4453 8.49451C28.6587 8.61764 28.9118 8.6792 29.2046 8.6792C29.3989 8.6792 29.5767 8.65184 29.7381 8.59711C29.8996 8.54239 30.0377 8.46031 30.1527 8.35086C30.2676 8.24141 30.3551 8.10734 30.4153 7.94865L32.0324 8.05536C31.9503 8.44389 31.782 8.78317 31.5276 9.0732C31.2759 9.3605 30.9503 9.58486 30.5508 9.74629C30.154 9.90499 29.6957 9.98434 29.1759 9.98434Z" fill="white"/>
<path d="M34.5585 3.55714L35.7159 5.7611L36.902 3.55714H38.6956L36.8692 6.70918L38.7448 9.86121H36.9595L35.7159 7.68187L34.4929 9.86121H32.687L34.5585 6.70918L32.7527 3.55714H34.5585Z" fill="white"/>
<path d="M42.3566 9.98434C41.7108 9.98434 41.1554 9.84753 40.6902 9.57392C40.2278 9.29757 39.8721 8.91451 39.6231 8.42474C39.3769 7.93497 39.2538 7.37132 39.2538 6.7338C39.2538 6.08807 39.3783 5.52169 39.6272 5.03466C39.879 4.54489 40.236 4.16319 40.6984 3.88958C41.1609 3.61323 41.7108 3.47505 42.3483 3.47505C42.8983 3.47505 43.3799 3.57492 43.793 3.77466C44.2062 3.9744 44.5332 4.25485 44.7739 4.61603C45.0147 4.9772 45.1474 5.4013 45.172 5.88833H43.5221C43.4756 5.57368 43.3525 5.32058 43.1528 5.12905C42.9558 4.93479 42.6972 4.83765 42.3771 4.83765C42.1062 4.83765 41.8695 4.91153 41.667 5.05928C41.4673 5.2043 41.3113 5.41635 41.1992 5.69543C41.087 5.97452 41.0309 6.31243 41.0309 6.70918C41.0309 7.11139 41.0856 7.45341 41.1951 7.73523C41.3072 8.01705 41.4646 8.23184 41.667 8.37959C41.8695 8.52734 42.1062 8.60122 42.3771 8.60122C42.5768 8.60122 42.756 8.56018 42.9147 8.47809C43.0762 8.39601 43.2089 8.27699 43.3128 8.12103C43.4195 7.96233 43.4893 7.77217 43.5221 7.55054H45.172C45.1447 8.0321 45.0133 8.4562 44.778 8.82285C44.5455 9.18675 44.224 9.47131 43.8135 9.67652C43.4031 9.88173 42.9175 9.98434 42.3566 9.98434Z" fill="white"/>
<path d="M49.1644 9.98434C48.5159 9.98434 47.9578 9.853 47.4899 9.59033C47.0248 9.32493 46.6663 8.95008 46.4146 8.46578C46.1629 7.97875 46.037 7.40279 46.037 6.7379C46.037 6.08944 46.1629 5.52032 46.4146 5.03055C46.6663 4.54078 47.0206 4.15909 47.4776 3.88547C47.9373 3.61186 48.4763 3.47505 49.0946 3.47505C49.5105 3.47505 49.8977 3.54209 50.2561 3.67616C50.6173 3.8075 50.932 4.00587 51.2001 4.27127C51.471 4.53668 51.6817 4.87049 51.8322 5.2727C51.9826 5.67218 52.0579 6.14006 52.0579 6.67634V7.15653H46.7347V6.07302H50.4121C50.4121 5.8213 50.3574 5.5983 50.2479 5.40403C50.1385 5.20977 49.9866 5.05791 49.7924 4.94847C49.6008 4.83629 49.3778 4.78019 49.1234 4.78019C48.858 4.78019 48.6227 4.84176 48.4174 4.96488C48.215 5.08527 48.0563 5.24807 47.9414 5.45329C47.8264 5.65576 47.7676 5.88149 47.7649 6.13048V7.16064C47.7649 7.47256 47.8223 7.74207 47.9373 7.96917C48.0549 8.19627 48.2204 8.37138 48.4339 8.49451C48.6473 8.61764 48.9004 8.6792 49.1931 8.6792C49.3874 8.6792 49.5653 8.65184 49.7267 8.59711C49.8881 8.54239 50.0263 8.46031 50.1412 8.35086C50.2561 8.24141 50.3437 8.10734 50.4039 7.94865L52.0209 8.05536C51.9389 8.44389 51.7706 8.78317 51.5161 9.0732C51.2644 9.3605 50.9388 9.58486 50.5393 9.74629C50.1426 9.90499 49.6843 9.98434 49.1644 9.98434Z" fill="white"/>
<path d="M54.9473 6.21667V9.86121H53.1989V3.55714H54.8652V4.66938H54.939C55.0786 4.30274 55.3125 4.01271 55.6409 3.79929C55.9692 3.58313 56.3673 3.47505 56.8352 3.47505C57.273 3.47505 57.6547 3.57082 57.9803 3.76235C58.3059 3.95388 58.559 4.22749 58.7396 4.58319C58.9201 4.93615 59.0104 5.35752 59.0104 5.84729V9.86121H57.262V6.15921C57.2648 5.77341 57.1663 5.47244 56.9665 5.25628C56.7668 5.03739 56.4918 4.92795 56.1416 4.92795C55.9063 4.92795 55.6983 4.97856 55.5177 5.0798C55.3399 5.18104 55.2003 5.32879 55.0991 5.52306C55.0006 5.71459 54.95 5.94579 54.9473 6.21667Z" fill="white"/>
<path d="M63.7416 3.55714V4.87049H59.9452V3.55714H63.7416ZM60.807 2.04679H62.5554V7.92402C62.5554 8.08546 62.5801 8.21132 62.6293 8.30161C62.6786 8.38917 62.747 8.45073 62.8345 8.4863C62.9248 8.52187 63.0288 8.53966 63.1465 8.53966C63.2285 8.53966 63.3106 8.53282 63.3927 8.51913C63.4748 8.50272 63.5377 8.4904 63.5815 8.4822L63.8565 9.78323C63.7689 9.81059 63.6458 9.84206 63.4871 9.87763C63.3284 9.91593 63.1355 9.93919 62.9084 9.9474C62.487 9.96382 62.1177 9.90773 61.8003 9.77913C61.4856 9.65053 61.2407 9.45079 61.0656 9.17991C60.8905 8.90903 60.8043 8.56702 60.807 8.15386V2.04679Z" fill="white"/>
</svg>
